<?xml version="1.0" encoding="utf-8"?>
<!-- Generator: Adobe Illustrator 24.2.1, SVG Export Plug-In . SVG Version: 6.00 Build 0)  -->
<svg version="1.1" id="Layer_1" xmlns="http://www.w3.org/2000/svg" xmlns:xlink="http://www.w3.org/1999/xlink" x="0px" y="0px"
	 viewBox="0 0 1920 1080" style="enable-background:new 0 0 1920 1080;" xml:space="preserve">
<style type="text/css">
	.st0{stroke:#000000;stroke-width:2;stroke-miterlimit:10;}
	.st1{fill:#0097CB;}
	.st2{fill:#FFCC07;}
</style>
<g>
	<path class="st0" d="M786.5,519.4h-17V455h15.8v9.2c2.7-4.3,5.1-7.2,7.3-8.6c2.2-1.4,4.6-2.1,7.4-2.1c3.9,0,7.6,1.1,11.2,3.2
		l-5.3,14.9c-2.9-1.9-5.5-2.8-8-2.8c-2.4,0-4.4,0.7-6.1,2c-1.7,1.3-3,3.7-3.9,7.1c-1,3.4-1.4,10.6-1.4,21.6V519.4z"/>
	<path class="st0" d="M860.9,519.4v-9.6c-2.3,3.4-5.4,6.1-9.3,8.1s-7.9,3-12.1,3c-4.3,0-8.2-1-11.6-2.9c-3.4-1.9-5.9-4.6-7.5-8
		c-1.5-3.4-2.3-8.2-2.3-14.3V455h17v29.6c0,9.1,0.3,14.6,0.9,16.7c0.6,2,1.8,3.7,3.4,4.9c1.7,1.2,3.8,1.8,6.3,1.8
		c2.9,0,5.5-0.8,7.8-2.4c2.3-1.6,3.9-3.6,4.7-5.9s1.3-8.2,1.3-17.4V455h17v64.4H860.9z"/>
	<path class="st0" d="M953,519.4h-17v-32.9c0-7-0.4-11.5-1.1-13.5c-0.7-2-1.9-3.6-3.5-4.8c-1.6-1.1-3.6-1.7-5.9-1.7
		c-3,0-5.6,0.8-7.9,2.4c-2.3,1.6-4,3.8-4.8,6.4c-0.9,2.7-1.3,7.6-1.3,14.8v29.2h-17V455h15.8v9.5c5.6-7.3,12.7-10.9,21.2-10.9
		c3.8,0,7.2,0.7,10.3,2c3.1,1.4,5.5,3.1,7.1,5.2c1.6,2.1,2.7,4.5,3.3,7.2c0.6,2.7,0.9,6.5,0.9,11.5V519.4z"/>
	<path class="st0" d="M999.8,455v13.6h-11.6v26c0,5.3,0.1,8.3,0.3,9.2c0.2,0.9,0.7,1.6,1.5,2.2c0.8,0.6,1.8,0.8,2.9,0.8
		c1.6,0,3.9-0.5,6.9-1.6l1.5,13.2c-4,1.7-8.5,2.5-13.5,2.5c-3.1,0-5.8-0.5-8.3-1.5s-4.3-2.4-5.4-4c-1.2-1.6-2-3.9-2.4-6.6
		c-0.4-2-0.5-6-0.5-12v-28.1h-7.8V455h7.8v-12.8l17.1-9.9V455H999.8z"/>
	<path class="st0" d="M1011.7,446.2v-15.8h17v15.8H1011.7z M1011.7,519.4V455h17v64.4H1011.7z"/>
	<path class="st0" d="M1044.9,455h15.7v8.8c5.6-6.8,12.3-10.3,20.1-10.3c4.1,0,7.7,0.8,10.7,2.5c3,1.7,5.5,4.3,7.5,7.7
		c2.8-3.4,5.9-6,9.2-7.7c3.3-1.7,6.8-2.5,10.5-2.5c4.7,0,8.7,1,12,2.9c3.3,1.9,5.7,4.7,7.3,8.5c1.2,2.8,1.8,7.2,1.8,13.3v41.2h-17
		v-36.8c0-6.4-0.6-10.5-1.8-12.4c-1.6-2.4-4-3.6-7.3-3.6c-2.4,0-4.6,0.7-6.7,2.2c-2.1,1.5-3.6,3.6-4.6,6.4
		c-0.9,2.8-1.4,7.2-1.4,13.3v30.9h-17v-35.3c0-6.3-0.3-10.3-0.9-12.1c-0.6-1.8-1.5-3.2-2.8-4.1c-1.3-0.9-3-1.3-5.2-1.3
		c-2.6,0-5,0.7-7.1,2.1c-2.1,1.4-3.6,3.5-4.5,6.1c-0.9,2.7-1.4,7.1-1.4,13.3v31.3h-17V455z"/>
	<path class="st0" d="M1194,498.9l17,2.9c-2.2,6.2-5.6,11-10.3,14.2c-4.7,3.3-10.6,4.9-17.7,4.9c-11.2,0-19.5-3.7-24.9-11
		c-4.2-5.9-6.4-13.3-6.4-22.2c0-10.7,2.8-19,8.4-25.1c5.6-6,12.6-9.1,21.2-9.1c9.6,0,17.1,3.2,22.7,9.5c5.5,6.3,8.2,16,7.9,29.1
		h-42.7c0.1,5.1,1.5,9,4.1,11.8c2.6,2.8,5.9,4.2,9.8,4.2c2.7,0,4.9-0.7,6.7-2.2C1191.7,504.5,1193,502.1,1194,498.9z M1194.9,481.7
		c-0.1-4.9-1.4-8.7-3.8-11.3c-2.4-2.6-5.4-3.9-8.9-3.9c-3.7,0-6.8,1.4-9.2,4.1c-2.4,2.7-3.6,6.4-3.6,11H1194.9z"/>
	<path class="st0" d="M787.9,620.3l-26-64.4h17.9l12.1,32.9l3.5,11c0.9-2.8,1.5-4.6,1.8-5.5c0.6-1.8,1.2-3.6,1.8-5.5l12.3-32.9h17.5
		l-25.6,64.4H787.9z"/>
	<path class="st0" d="M876.6,599.8l17,2.9c-2.2,6.2-5.6,11-10.3,14.2c-4.7,3.3-10.6,4.9-17.7,4.9c-11.2,0-19.5-3.7-24.9-11
		c-4.2-5.9-6.4-13.3-6.4-22.2c0-10.7,2.8-19,8.4-25.1c5.6-6,12.6-9.1,21.2-9.1c9.6,0,17.1,3.2,22.7,9.5c5.5,6.3,8.2,16,7.9,29.1
		h-42.7c0.1,5.1,1.5,9,4.1,11.8c2.6,2.8,5.9,4.2,9.8,4.2c2.7,0,4.9-0.7,6.7-2.2C874.3,605.4,875.6,603,876.6,599.8z M877.5,582.6
		c-0.1-4.9-1.4-8.7-3.8-11.3c-2.4-2.6-5.4-3.9-8.9-3.9c-3.7,0-6.8,1.4-9.2,4.1c-2.4,2.7-3.6,6.4-3.6,11H877.5z"/>
	<path class="st0" d="M924.7,620.3h-17v-64.4h15.8v9.2c2.7-4.3,5.1-7.2,7.3-8.6c2.2-1.4,4.6-2.1,7.4-2.1c3.9,0,7.6,1.1,11.2,3.2
		l-5.3,14.9c-2.9-1.9-5.5-2.8-8-2.8c-2.4,0-4.4,0.7-6.1,2c-1.7,1.3-3,3.7-3.9,7.1c-1,3.4-1.4,10.6-1.4,21.6V620.3z"/>
	<path class="st0" d="M956.7,547.1v-15.8h17v15.8H956.7z M956.7,620.3v-64.4h17v64.4H956.7z"/>
	<path class="st0" d="M983.8,555.9h9.5V551c0-5.4,0.6-9.5,1.7-12.1s3.3-4.8,6.4-6.5c3.1-1.7,7-2.5,11.7-2.5c4.9,0,9.6,0.7,14.3,2.2
		l-2.3,11.9c-2.7-0.6-5.3-1-7.8-1c-2.5,0-4.2,0.6-5.3,1.7c-1.1,1.2-1.6,3.4-1.6,6.6v4.5h12.7v13.4h-12.7v51h-17v-51h-9.5V555.9z"/>
	<path class="st0" d="M1032.6,547.1v-15.8h17v15.8H1032.6z M1032.6,620.3v-64.4h17v64.4H1032.6z"/>
	<path class="st0" d="M1123.3,574.9l-16.8,3c-0.6-3.4-1.8-5.9-3.9-7.6c-2-1.7-4.6-2.5-7.8-2.5c-4.2,0-7.6,1.5-10.2,4.4
		c-2.5,2.9-3.8,7.8-3.8,14.7c0,7.6,1.3,13,3.9,16.2c2.6,3.2,6,4.7,10.3,4.7c3.2,0,5.9-0.9,7.9-2.8c2.1-1.8,3.5-5,4.4-9.5l16.7,2.9
		c-1.7,7.7-5.1,13.5-10,17.4c-4.9,3.9-11.5,5.9-19.8,5.9c-9.4,0-16.9-3-22.5-8.9s-8.4-14.2-8.4-24.7c0-10.6,2.8-18.9,8.4-24.8
		c5.6-5.9,13.2-8.9,22.8-8.9c7.8,0,14.1,1.7,18.7,5.1C1117.9,562.9,1121.3,568,1123.3,574.9z"/>
	<path class="st0" d="M1149,575.5l-15.5-2.8c1.7-6.2,4.7-10.8,9-13.8s10.6-4.5,18.9-4.5c7.6,0,13.3,0.9,17,2.7
		c3.7,1.8,6.3,4.1,7.9,6.9c1.5,2.8,2.3,7.9,2.3,15.3l-0.2,19.9c0,5.7,0.3,9.8,0.8,12.5s1.6,5.6,3.1,8.6h-16.9c-0.4-1.1-1-2.8-1.6-5
		c-0.3-1-0.5-1.7-0.6-2c-2.9,2.8-6,5-9.3,6.4c-3.3,1.4-6.9,2.1-10.6,2.1c-6.6,0-11.9-1.8-15.7-5.4c-3.8-3.6-5.7-8.1-5.7-13.6
		c0-3.6,0.9-6.9,2.6-9.7c1.7-2.9,4.2-5,7.3-6.6c3.1-1.5,7.7-2.8,13.6-4c8-1.5,13.5-2.9,16.6-4.2v-1.7c0-3.3-0.8-5.6-2.4-7
		c-1.6-1.4-4.7-2.1-9.2-2.1c-3,0-5.4,0.6-7.1,1.8C1151.4,570.4,1150,572.5,1149,575.5z M1171.8,589.4c-2.2,0.7-5.6,1.6-10.4,2.6
		c-4.7,1-7.8,2-9.3,3c-2.2,1.6-3.3,3.6-3.3,6c0,2.4,0.9,4.4,2.7,6.2c1.8,1.7,4,2.6,6.8,2.6c3.1,0,6-1,8.8-3c2.1-1.5,3.4-3.4,4.1-5.6
		c0.4-1.5,0.7-4.2,0.7-8.3V589.4z"/>
	<path class="st0" d="M1234.9,555.9v13.6h-11.6v26c0,5.3,0.1,8.3,0.3,9.2c0.2,0.9,0.7,1.6,1.5,2.2c0.8,0.6,1.7,0.8,2.9,0.8
		c1.6,0,3.9-0.5,6.9-1.6l1.5,13.2c-4,1.7-8.5,2.5-13.5,2.5c-3.1,0-5.8-0.5-8.3-1.5c-2.5-1-4.3-2.4-5.4-4c-1.2-1.6-2-3.9-2.4-6.6
		c-0.4-2-0.5-6-0.5-12v-28.1h-7.8v-13.6h7.8v-12.8l17.1-9.9v22.7H1234.9z"/>
	<path class="st0" d="M1246.7,547.1v-15.8h17v15.8H1246.7z M1246.7,620.3v-64.4h17v64.4H1246.7z"/>
	<path class="st0" d="M1277.3,587.2c0-5.7,1.4-11.1,4.2-16.4c2.8-5.3,6.7-9.3,11.9-12.1c5.1-2.8,10.8-4.2,17.1-4.2
		c9.7,0,17.7,3.2,24,9.5c6.2,6.3,9.3,14.3,9.3,24c0,9.7-3.1,17.8-9.4,24.2s-14.2,9.6-23.8,9.6c-5.9,0-11.5-1.3-16.9-4
		c-5.4-2.7-9.4-6.6-12.2-11.7C1278.7,600.9,1277.3,594.6,1277.3,587.2z M1294.7,588.1c0,6.4,1.5,11.3,4.6,14.7s6.8,5.1,11.2,5.1
		c4.4,0,8.2-1.7,11.2-5.1s4.5-8.3,4.5-14.8c0-6.3-1.5-11.2-4.5-14.6c-3-3.4-6.7-5.1-11.2-5.1c-4.4,0-8.2,1.7-11.2,5.1
		C1296.2,576.8,1294.7,581.7,1294.7,588.1z"/>
	<path class="st0" d="M1415.7,620.3h-17v-32.9c0-7-0.4-11.5-1.1-13.5s-1.9-3.6-3.5-4.8c-1.6-1.1-3.6-1.7-5.9-1.7
		c-3,0-5.6,0.8-7.9,2.4s-4,3.8-4.8,6.4c-0.9,2.7-1.3,7.6-1.3,14.8v29.2h-17v-64.4h15.8v9.5c5.6-7.3,12.7-10.9,21.2-10.9
		c3.8,0,7.2,0.7,10.3,2c3.1,1.4,5.5,3.1,7.1,5.2c1.6,2.1,2.7,4.5,3.3,7.2c0.6,2.7,0.9,6.5,0.9,11.5V620.3z"/>
</g>
<path d="M681.5,445.6c-14.1-8.8-32.9-13.7-53-13.7s-39,4.9-53,13.7c-5.2,3.3-9.7,7-13.3,11.2c-13.2-16.1-29.2-24.9-46.1-24.9
	c-21.3,0-41.1,13.8-55.9,39c-14.3,24.4-22.2,56.8-22.2,91.2c0,17.7,8.7,32.4,25.1,42.7c14.1,8.8,32.9,13.7,53,13.7s39-4.9,53-13.7
	c5.2-3.3,9.7-7,13.3-11.2c13.2,16.1,29.2,24.9,46.1,24.9c21.3,0,41.1-13.8,55.9-39c14.3-24.4,22.2-56.8,22.2-91.2
	C706.6,470.7,697.9,455.9,681.5,445.6z M589.9,589.6c8.4-3.1,14.4-11.1,14.4-20.6c0-7.9-4.2-14.8-10.5-18.7
	c-1.1-21.3-5.3-41.5-12.1-59.1c1.5-3,2.3-6.3,2.3-9.8c0-9.3-5.8-17.2-14-20.4c10.9-11.9,30.1-20.6,58.5-20.6
	c18.6,0,35.8,4.4,48.5,12.4c9.6,6,21.1,17.1,21.1,35.5c0,67.1-31.2,121.7-69.6,121.7C614.2,610.1,600.9,602.6,589.9,589.6z
	 M516.1,610.1c-47.8,0-69.6-24.8-69.6-47.9c0-67.1,31.2-121.7,69.6-121.7c14.3,0,27.5,7.6,38.6,20.5c-8.4,3.1-14.4,11.1-14.4,20.6
	c0,7.9,4.2,14.8,10.5,18.7c1.4,0.8,2.8,1.5,4.4,2.1c1.4,0.5,2.8,0.8,4.3,1c0.9,0.1,1.8,0.2,2.7,0.2c5,0,9.6-1.7,13.3-4.6
	c5.1,14.5,8.4,30.9,9.7,48.6c-0.9-0.1-1.8-0.2-2.7-0.2c-5,0-9.6,1.7-13.3,4.6c-1.2,0.9-2.3,2-3.3,3.1c-1.1,1.3-2.1,2.8-2.9,4.4
	c-1.5,3-2.4,6.3-2.4,9.8c0,9.3,5.8,17.2,14,20.4C563.5,601.4,544.4,610.1,516.1,610.1z M595.8,569.1c0,4.1-1.8,7.8-4.7,10.2
	c-1.7,1.4-3.7,2.5-6,2.9c-0.3,0.1-0.5,0.1-0.8,0.1c-0.6,0.1-1.3,0.2-1.9,0.2c-0.8,0-1.7-0.1-2.5-0.2c-0.3,0-0.5-0.1-0.8-0.2
	c-5.8-1.5-10.2-6.7-10.2-13c0-1.5,0.3-3,0.8-4.4c0.6-1.7,1.5-3.2,2.6-4.5c2.5-2.8,6.1-4.6,10.1-4.6c1.1,0,2.2,0.1,3.2,0.4
	c1.5,0.4,3,1,4.3,1.9c1.8,1.2,3.2,2.8,4.3,4.7C595.2,564.5,595.8,566.7,595.8,569.1z M575.5,481.5c0,1.5-0.3,3-0.7,4.4
	c-0.6,1.7-1.5,3.2-2.6,4.5c-2.5,2.8-6.1,4.6-10.1,4.6c-1.1,0-2.1-0.1-3.2-0.4c-1.5-0.4-3-1-4.3-1.9c-1.8-1.2-3.2-2.8-4.3-4.6
	c-1.1-1.9-1.7-4.2-1.7-6.5c0-4.1,1.8-7.8,4.7-10.2c1.7-1.4,3.7-2.5,6-2.9c0.3-0.1,0.6-0.1,0.9-0.1c0.6-0.1,1.2-0.1,1.9-0.1
	c0.8,0,1.7,0.1,2.5,0.2c0.3,0.1,0.5,0.1,0.8,0.2C571.2,470,575.5,475.2,575.5,481.5z"/>
<g>
	<path class="st1" d="M565.7,554.9c1-1.2,2.1-2.2,3.3-3.1c3.7-2.8,8.3-4.6,13.3-4.6c0.9,0,1.8,0.1,2.7,0.2
		c-1.2-17.6-4.6-34.1-9.7-48.6c-3.7,2.9-8.3,4.6-13.3,4.6c-0.9,0-1.8-0.1-2.7-0.2c-1.5-0.2-2.9-0.5-4.3-1c-1.5-0.5-3-1.2-4.4-2.1
		c-6.3-3.9-10.5-10.8-10.5-18.7c0-9.5,6-17.5,14.4-20.6c-11.1-12.9-24.3-20.5-38.6-20.5c-38.4,0-69.6,54.6-69.6,121.7
		c0,23.1,21.8,47.9,69.6,47.9c28.3,0,47.5-8.7,58.4-20.6c-8.2-3.2-14-11.1-14-20.4c0-3.5,0.9-6.9,2.4-9.8
		C563.6,557.7,564.6,556.2,565.7,554.9z"/>
</g>
<path class="st2" d="M584,481.5c0,3.5-0.9,6.9-2.3,9.8c6.9,17.7,11,37.9,12.1,59.1c6.3,3.9,10.5,10.8,10.5,18.7
	c0,9.4-6,17.5-14.4,20.6c11,12.9,24.3,20.5,38.6,20.5c38.4,0,69.6-54.6,69.6-121.7c0-18.4-11.5-29.5-21.1-35.5
	c-12.7-8-30-12.4-48.5-12.4c-28.3,0-47.5,8.7-58.5,20.6C578.2,464.2,584,472.2,584,481.5z"/>
</svg>
