<svg width="979" height="194" viewBox="0 0 979 194" fill="none" xmlns="http://www.w3.org/2000/svg">
<path d="M348.5 90.4H331.5V26H347.3V35.2C350 30.9 352.4 28 354.6 26.6C356.8 25.2 359.2 24.5 362 24.5C365.9 24.5 369.6 25.6 373.2 27.7L367.9 42.6C365 40.7 362.4 39.8 359.9 39.8C357.5 39.8 355.5 40.5 353.8 41.8C352.1 43.1 350.8 45.5 349.9 48.9C348.9 52.3 348.5 59.5 348.5 70.5V90.4Z" fill="white" stroke="black" stroke-width="2" stroke-miterlimit="10"/>
<path d="M422.9 90.4V80.8C420.6 84.2 417.5 86.9 413.6 88.9C409.7 90.9 405.7 91.9 401.5 91.9C397.2 91.9 393.3 90.9 389.9 89C386.5 87.1 384 84.4 382.4 81C380.9 77.6 380.1 72.8 380.1 66.7V26H397.1V55.6C397.1 64.7 397.4 70.2 398 72.3C398.6 74.3 399.8 76 401.4 77.2C403.1 78.4 405.2 79 407.7 79C410.6 79 413.2 78.2 415.5 76.6C417.8 75 419.4 73 420.2 70.7C421 68.4 421.5 62.5 421.5 53.3V26H438.5V90.4H422.9Z" fill="white" stroke="black" stroke-width="2" stroke-miterlimit="10"/>
<path d="M515 90.4001H498V57.5001C498 50.5001 497.6 46.0001 496.9 44.0001C496.2 42.0001 495 40.4001 493.4 39.2001C491.8 38.1001 489.8 37.5001 487.5 37.5001C484.5 37.5001 481.9 38.3001 479.6 39.9001C477.3 41.5001 475.6 43.7001 474.8 46.3001C473.9 49.0001 473.5 53.9001 473.5 61.1001V90.3001H456.5V26.0001H472.3V35.5001C477.9 28.2001 485 24.6001 493.5 24.6001C497.3 24.6001 500.7 25.3001 503.8 26.6001C506.9 28.0001 509.3 29.7001 510.9 31.8001C512.5 33.9001 513.6 36.3001 514.2 39.0001C514.8 41.7001 515.1 45.5001 515.1 50.5001V90.4001H515Z" fill="white" stroke="black" stroke-width="2" stroke-miterlimit="10"/>
<path d="M561.8 25.9998V39.5998H550.2V65.5998C550.2 70.8998 550.3 73.8998 550.5 74.7998C550.7 75.6998 551.2 76.3998 552 76.9998C552.8 77.5998 553.8 77.7998 554.9 77.7998C556.5 77.7998 558.8 77.2998 561.8 76.1998L563.3 89.3998C559.3 91.0998 554.8 91.8998 549.8 91.8998C546.7 91.8998 544 91.3998 541.5 90.3998C539 89.3998 537.2 87.9998 536.1 86.3998C534.9 84.7998 534.1 82.4998 533.7 79.7998C533.3 77.7998 533.2 73.7998 533.2 67.7998V39.6998H525.4V25.9998H533.2V13.1998L550.3 3.2998V25.9998H561.8Z" fill="white" stroke="black" stroke-width="2" stroke-miterlimit="10"/>
<path d="M573.701 17.1999V1.3999H590.701V17.1999H573.701ZM573.701 90.3999V25.9999H590.701V90.3999H573.701Z" fill="white" stroke="black" stroke-width="2" stroke-miterlimit="10"/>
<path d="M606.9 26H622.6V34.8C628.2 28 634.9 24.5 642.7 24.5C646.8 24.5 650.4 25.3 653.4 27C656.4 28.7 658.9 31.3 660.9 34.7C663.7 31.3 666.8 28.7 670.1 27C673.4 25.3 676.9 24.5 680.6 24.5C685.3 24.5 689.3 25.5 692.6 27.4C695.9 29.3 698.3 32.1 699.9 35.9C701.1 38.7 701.7 43.1 701.7 49.2V90.4H684.7V53.6C684.7 47.2 684.1 43.1 682.9 41.2C681.3 38.8 678.9 37.6 675.6 37.6C673.2 37.6 671 38.3 668.9 39.8C666.8 41.3 665.3 43.4 664.3 46.2C663.4 49 662.9 53.4 662.9 59.5V90.4H645.9V55.1C645.9 48.8 645.6 44.8 645 43C644.4 41.2 643.5 39.8 642.2 38.9C640.9 38 639.2 37.6 637 37.6C634.4 37.6 632 38.3 629.9 39.7C627.8 41.1 626.3 43.2 625.4 45.8C624.5 48.5 624 52.9 624 59.1V90.4H607V26H606.9Z" fill="white" stroke="black" stroke-width="2" stroke-miterlimit="10"/>
<path d="M756.001 69.9L773.001 72.8C770.801 79 767.401 83.8 762.701 87C758.001 90.3 752.101 91.9 745.001 91.9C733.801 91.9 725.501 88.2 720.101 80.9C715.901 75 713.701 67.6 713.701 58.7C713.701 48 716.501 39.7 722.101 33.6C727.701 27.6 734.701 24.5 743.301 24.5C752.901 24.5 760.401 27.7 766.001 34C771.501 40.3 774.201 50 773.901 63.1H731.201C731.301 68.2 732.701 72.1 735.301 74.9C737.901 77.7 741.201 79.1 745.101 79.1C747.801 79.1 750.001 78.4 751.801 76.9C753.701 75.5 755.001 73.1 756.001 69.9ZM756.901 52.7C756.801 47.8 755.501 44 753.101 41.4C750.701 38.8 747.701 37.5 744.201 37.5C740.501 37.5 737.401 38.9 735.001 41.6C732.601 44.3 731.401 48 731.401 52.6H756.901V52.7Z" fill="white" stroke="black" stroke-width="2" stroke-miterlimit="10"/>
<path d="M349.9 191.3L323.9 126.9H341.8L353.9 159.8L357.4 170.8C358.3 168 358.9 166.2 359.2 165.3C359.8 163.5 360.4 161.7 361 159.8L373.3 126.9H390.8L365.2 191.3H349.9Z" fill="white" stroke="black" stroke-width="2" stroke-miterlimit="10"/>
<path d="M438.601 170.8L455.601 173.7C453.401 179.9 450.001 184.7 445.301 187.9C440.601 191.2 434.701 192.8 427.601 192.8C416.401 192.8 408.101 189.1 402.701 181.8C398.501 175.9 396.301 168.5 396.301 159.6C396.301 148.9 399.101 140.6 404.701 134.5C410.301 128.5 417.301 125.4 425.901 125.4C435.501 125.4 443.001 128.6 448.601 134.9C454.101 141.2 456.801 150.9 456.501 164H413.801C413.901 169.1 415.301 173 417.901 175.8C420.501 178.6 423.801 180 427.701 180C430.401 180 432.601 179.3 434.401 177.8C436.301 176.4 437.601 174 438.601 170.8ZM439.501 153.6C439.401 148.7 438.101 144.9 435.701 142.3C433.301 139.7 430.301 138.4 426.801 138.4C423.101 138.4 420.001 139.8 417.601 142.5C415.201 145.2 414.001 148.9 414.001 153.5H439.501V153.6Z" fill="white" stroke="black" stroke-width="2" stroke-miterlimit="10"/>
<path d="M486.701 191.3H469.701V126.9H485.501V136.1C488.201 131.8 490.601 128.9 492.801 127.5C495.001 126.1 497.401 125.4 500.201 125.4C504.101 125.4 507.801 126.5 511.401 128.6L506.101 143.5C503.201 141.6 500.601 140.7 498.101 140.7C495.701 140.7 493.701 141.4 492.001 142.7C490.301 144 489.001 146.4 488.101 149.8C487.101 153.2 486.701 160.4 486.701 171.4V191.3Z" fill="white" stroke="black" stroke-width="2" stroke-miterlimit="10"/>
<path d="M518.701 118.1V102.3H535.701V118.1H518.701ZM518.701 191.3V126.9H535.701V191.3H518.701Z" fill="white" stroke="black" stroke-width="2" stroke-miterlimit="10"/>
<path d="M545.801 126.9H555.301V122C555.301 116.6 555.901 112.5 557.001 109.9C558.101 107.3 560.301 105.1 563.401 103.4C566.501 101.7 570.401 100.9 575.101 100.9C580.001 100.9 584.701 101.6 589.401 103.1L587.101 115C584.401 114.4 581.801 114 579.301 114C576.801 114 575.101 114.6 574.001 115.7C572.901 116.9 572.401 119.1 572.401 122.3V126.8H585.101V140.2H572.401V191.2H555.401V140.2H545.901V126.9H545.801Z" fill="white" stroke="black" stroke-width="2" stroke-miterlimit="10"/>
<path d="M594.6 118.1V102.3H611.6V118.1H594.6ZM594.6 191.3V126.9H611.6V191.3H594.6Z" fill="white" stroke="black" stroke-width="2" stroke-miterlimit="10"/>
<path d="M685.301 145.9L668.501 148.9C667.901 145.5 666.701 143 664.601 141.3C662.601 139.6 660.001 138.8 656.801 138.8C652.601 138.8 649.201 140.3 646.601 143.2C644.101 146.1 642.801 151 642.801 157.9C642.801 165.5 644.101 170.9 646.701 174.1C649.301 177.3 652.701 178.8 657.001 178.8C660.201 178.8 662.901 177.9 664.901 176C667.001 174.2 668.401 171 669.301 166.5L686.001 169.4C684.301 177.1 680.901 182.9 676.001 186.8C671.101 190.7 664.501 192.7 656.201 192.7C646.801 192.7 639.301 189.7 633.701 183.8C628.101 177.9 625.301 169.6 625.301 159.1C625.301 148.5 628.101 140.2 633.701 134.3C639.301 128.4 646.901 125.4 656.501 125.4C664.301 125.4 670.601 127.1 675.201 130.5C679.901 133.9 683.301 139 685.301 145.9Z" fill="white" stroke="black" stroke-width="2" stroke-miterlimit="10"/>
<path d="M711 146.5L695.5 143.7C697.2 137.5 700.2 132.9 704.5 129.9C708.8 126.9 715.1 125.4 723.4 125.4C731 125.4 736.7 126.3 740.4 128.1C744.1 129.9 746.7 132.2 748.3 135C749.8 137.8 750.6 142.9 750.6 150.3L750.4 170.2C750.4 175.9 750.7 180 751.2 182.7C751.7 185.4 752.8 188.3 754.3 191.3H737.4C737 190.2 736.4 188.5 735.8 186.3C735.5 185.3 735.3 184.6 735.2 184.3C732.3 187.1 729.2 189.3 725.9 190.7C722.6 192.1 719 192.8 715.3 192.8C708.7 192.8 703.4 191 699.6 187.4C695.8 183.8 693.9 179.3 693.9 173.8C693.9 170.2 694.8 166.9 696.5 164.1C698.2 161.2 700.7 159.1 703.8 157.5C706.9 156 711.5 154.7 717.4 153.5C725.4 152 730.9 150.6 734 149.3V147.6C734 144.3 733.2 142 731.6 140.6C730 139.2 726.9 138.5 722.4 138.5C719.4 138.5 717 139.1 715.3 140.3C713.4 141.4 712 143.5 711 146.5ZM733.8 160.4C731.6 161.1 728.2 162 723.4 163C718.7 164 715.6 165 714.1 166C711.9 167.6 710.8 169.6 710.8 172C710.8 174.4 711.7 176.4 713.5 178.2C715.3 179.9 717.5 180.8 720.3 180.8C723.4 180.8 726.3 179.8 729.1 177.8C731.2 176.3 732.5 174.4 733.2 172.2C733.6 170.7 733.9 168 733.9 163.9V160.4H733.8Z" fill="white" stroke="black" stroke-width="2" stroke-miterlimit="10"/>
<path d="M796.9 126.9V140.5H785.3V166.5C785.3 171.8 785.4 174.8 785.6 175.7C785.8 176.6 786.3 177.3 787.1 177.9C787.9 178.5 788.8 178.7 790 178.7C791.6 178.7 793.9 178.2 796.9 177.1L798.4 190.3C794.4 192 789.9 192.8 784.9 192.8C781.8 192.8 779.1 192.3 776.6 191.3C774.1 190.3 772.3 188.9 771.2 187.3C770 185.7 769.2 183.4 768.8 180.7C768.4 178.7 768.3 174.7 768.3 168.7V140.6H760.5V127H768.3V114.2L785.4 104.3V127H796.9V126.9Z" fill="white" stroke="black" stroke-width="2" stroke-miterlimit="10"/>
<path d="M808.701 118.1V102.3H825.701V118.1H808.701ZM808.701 191.3V126.9H825.701V191.3H808.701Z" fill="white" stroke="black" stroke-width="2" stroke-miterlimit="10"/>
<path d="M839.301 158.2C839.301 152.5 840.701 147.1 843.501 141.8C846.301 136.5 850.201 132.5 855.401 129.7C860.501 126.9 866.201 125.5 872.501 125.5C882.201 125.5 890.201 128.7 896.501 135C902.701 141.3 905.801 149.3 905.801 159C905.801 168.7 902.701 176.8 896.401 183.2C890.101 189.6 882.201 192.8 872.601 192.8C866.701 192.8 861.101 191.5 855.701 188.8C850.301 186.1 846.301 182.2 843.501 177.1C840.701 171.9 839.301 165.6 839.301 158.2ZM856.701 159.1C856.701 165.5 858.201 170.4 861.301 173.8C864.401 177.2 868.101 178.9 872.501 178.9C876.901 178.9 880.701 177.2 883.701 173.8C886.701 170.4 888.201 165.5 888.201 159C888.201 152.7 886.701 147.8 883.701 144.4C880.701 141 877.001 139.3 872.501 139.3C868.101 139.3 864.301 141 861.301 144.4C858.201 147.8 856.701 152.7 856.701 159.1Z" fill="white" stroke="black" stroke-width="2" stroke-miterlimit="10"/>
<path d="M977.701 191.3H960.701V158.4C960.701 151.4 960.301 146.9 959.601 144.9C958.901 142.9 957.701 141.3 956.101 140.1C954.501 139 952.501 138.4 950.201 138.4C947.201 138.4 944.601 139.2 942.301 140.8C940.001 142.4 938.301 144.6 937.501 147.2C936.601 149.9 936.201 154.8 936.201 162V191.2H919.201V126.8H935.001V136.3C940.601 129 947.701 125.4 956.201 125.4C960.001 125.4 963.401 126.1 966.501 127.4C969.601 128.8 972.001 130.5 973.601 132.6C975.201 134.7 976.301 137.1 976.901 139.8C977.501 142.5 977.801 146.3 977.801 151.3V191.3H977.701Z" fill="white" stroke="black" stroke-width="2" stroke-miterlimit="10"/>
<path d="M243.5 16.5999C229.4 7.79991 210.6 2.8999 190.5 2.8999C170.4 2.8999 151.5 7.79991 137.5 16.5999C132.3 19.8999 127.8 23.5999 124.2 27.7999C111 11.6999 95 2.8999 78.1 2.8999C56.8 2.8999 37 16.6999 22.2 41.8999C7.90001 66.2999 0 98.6999 0 133.1C0 150.8 8.70001 165.5 25.1 175.8C39.2 184.6 58 189.5 78.1 189.5C98.2 189.5 117.1 184.6 131.1 175.8C136.3 172.5 140.8 168.8 144.4 164.6C157.6 180.7 173.6 189.5 190.5 189.5C211.8 189.5 231.6 175.7 246.4 150.5C260.7 126.1 268.6 93.6999 268.6 59.2999C268.6 41.6999 259.9 26.8999 243.5 16.5999ZM151.9 160.6C160.3 157.5 166.3 149.5 166.3 140C166.3 132.1 162.1 125.2 155.8 121.3C154.7 99.9999 150.5 79.7999 143.7 62.1999C145.2 59.1999 146 55.8999 146 52.3999C146 43.0999 140.2 35.1999 132 31.9999C142.9 20.0999 162.1 11.3999 190.5 11.3999C209.1 11.3999 226.3 15.7999 239 23.7999C248.6 29.7999 260.1 40.8999 260.1 59.2999C260.1 126.4 228.9 181 190.5 181C176.2 181.1 162.9 173.6 151.9 160.6ZM78.1 181.1C30.3 181.1 8.5 156.3 8.5 133.2C8.5 66.0999 39.7 11.4999 78.1 11.4999C92.4 11.4999 105.6 19.0999 116.7 31.9999C108.3 35.0999 102.3 43.0999 102.3 52.5999C102.3 60.4999 106.5 67.3999 112.8 71.2999C114.2 72.0999 115.6 72.7999 117.2 73.3999C118.6 73.8999 120 74.1999 121.5 74.3999C122.4 74.4999 123.3 74.5999 124.2 74.5999C129.2 74.5999 133.8 72.8999 137.5 69.9999C142.6 84.4999 145.9 100.9 147.2 118.6C146.3 118.5 145.4 118.4 144.5 118.4C139.5 118.4 134.9 120.1 131.2 123C130 123.9 128.9 125 127.9 126.1C126.8 127.4 125.8 128.9 125 130.5C123.5 133.5 122.6 136.8 122.6 140.3C122.6 149.6 128.4 157.5 136.6 160.7C125.5 172.4 106.4 181.1 78.1 181.1ZM157.8 140.1C157.8 144.2 156 147.9 153.1 150.3C151.4 151.7 149.4 152.8 147.1 153.2C146.8 153.3 146.6 153.3 146.3 153.3C145.7 153.4 145 153.5 144.4 153.5C143.6 153.5 142.7 153.4 141.9 153.3C141.6 153.3 141.4 153.2 141.1 153.1C135.3 151.6 130.9 146.4 130.9 140.1C130.9 138.6 131.2 137.1 131.7 135.7C132.3 134 133.2 132.5 134.3 131.2C136.8 128.4 140.4 126.6 144.4 126.6C145.5 126.6 146.6 126.7 147.6 127C149.1 127.4 150.6 128 151.9 128.9C153.7 130.1 155.1 131.7 156.2 133.6C157.2 135.5 157.8 137.7 157.8 140.1ZM137.5 52.4999C137.5 53.9999 137.2 55.4999 136.8 56.8999C136.2 58.5999 135.3 60.0999 134.2 61.3999C131.7 64.1999 128.1 65.9999 124.1 65.9999C123 65.9999 122 65.8999 120.9 65.5999C119.4 65.1999 117.9 64.5999 116.6 63.6999C114.8 62.4999 113.4 60.8999 112.3 59.0999C111.2 57.1999 110.6 54.8999 110.6 52.5999C110.6 48.4999 112.4 44.7999 115.3 42.3999C117 40.9999 119 39.8999 121.3 39.4999C121.6 39.3999 121.9 39.3999 122.2 39.3999C122.8 39.2999 123.4 39.2999 124.1 39.2999C124.9 39.2999 125.8 39.3999 126.6 39.4999C126.9 39.5999 127.1 39.5999 127.4 39.6999C133.2 40.9999 137.5 46.1999 137.5 52.4999Z" fill="black"/>
<path d="M127.701 125.9C128.701 124.7 129.801 123.7 131.001 122.8C134.701 120 139.301 118.2 144.301 118.2C145.201 118.2 146.101 118.3 147.001 118.4C145.801 100.8 142.401 84.2998 137.301 69.7998C133.601 72.6998 129.001 74.3998 124.001 74.3998C123.101 74.3998 122.201 74.2998 121.301 74.1998C119.801 73.9998 118.401 73.6998 117.001 73.1998C115.501 72.6998 114.001 71.9998 112.601 71.0998C106.301 67.1998 102.101 60.2998 102.101 52.3998C102.101 42.8998 108.101 34.8998 116.501 31.7998C105.401 18.8998 92.2008 11.2998 77.9008 11.2998C39.5008 11.2998 8.30078 65.8998 8.30078 133C8.30078 156.1 30.1008 180.9 77.9008 180.9C106.201 180.9 125.401 172.2 136.301 160.3C128.101 157.1 122.301 149.2 122.301 139.9C122.301 136.4 123.201 133 124.701 130.1C125.601 128.7 126.601 127.2 127.701 125.9Z" fill="#0097CB"/>
<path d="M146 52.5001C146 56.0001 145.1 59.4001 143.7 62.3001C150.6 80.0001 154.7 100.2 155.8 121.4C162.1 125.3 166.3 132.2 166.3 140.1C166.3 149.5 160.3 157.6 151.9 160.7C162.9 173.6 176.2 181.2 190.5 181.2C228.9 181.2 260.1 126.6 260.1 59.5001C260.1 41.1001 248.6 30.0001 239 24.0001C226.3 16.0001 209 11.6001 190.5 11.6001C162.2 11.6001 143 20.3001 132 32.2001C140.2 35.2001 146 43.2001 146 52.5001Z" fill="#FFCC07"/>
</svg>
